<svg width="994" height="994" viewBox="0 0 994 994" fill="none" xmlns="http://www.w3.org/2000/svg">
<path d="M496.892 67.1475C734.233 67.1475 926.636 259.551 926.636 496.892C926.636 734.233 734.233 926.636 496.892 926.636C402.357 926.636 314.951 896.111 243.993 844.38C226.166 831.383 209.376 817.048 193.773 801.522L192.267 800.015C165.206 772.82 141.762 742.024 122.718 708.406C87.3426 645.961 67.1475 573.785 67.1475 496.892C67.1476 259.551 259.551 67.1476 496.892 67.1475ZM496.892 151.082C305.906 151.082 151.082 305.906 151.082 496.892C151.082 545.276 160.975 591.195 178.817 632.865H248.907C251.503 628.377 254.306 623.896 257.326 619.43L257.389 619.472L441.903 299.883L389.455 269.602L560.617 174.584L563.91 370.323L511.685 340.171L341.729 634.544H654.689V602.649C654.689 592.451 662.956 584.184 673.154 584.184C683.352 584.184 691.619 592.451 691.619 602.649V616.079C691.619 607.735 698.384 600.971 706.728 600.971C715.072 600.971 721.836 607.735 721.836 616.079V736.944C721.836 745.288 715.071 752.053 706.728 752.053C698.384 752.053 691.619 745.288 691.619 736.944V747.017C691.619 757.215 683.352 765.482 673.154 765.482C662.956 765.482 654.689 757.215 654.689 747.017V715.121H308.422C308.039 721.725 308.593 727.92 309.79 733.755C313.857 753.575 326.484 774.555 347.799 795.707C357.162 804.999 367.699 813.822 378.97 822.099C415.739 835.433 455.43 842.701 496.892 842.701C687.877 842.701 842.701 687.877 842.701 496.892C842.701 305.906 687.877 151.082 496.892 151.082Z" fill="white"></path>
<g opacity="0.7" filter="url(#filter0_df_8_43)">
<path d="M496.892 67.1475C734.233 67.1475 926.636 259.551 926.636 496.892C926.636 734.233 734.233 926.636 496.892 926.636C402.357 926.636 314.951 896.111 243.993 844.38C226.166 831.383 209.376 817.048 193.773 801.522L192.267 800.015C165.206 772.82 141.762 742.024 122.718 708.406C87.3426 645.961 67.1475 573.785 67.1475 496.892C67.1476 259.551 259.551 67.1476 496.892 67.1475ZM496.892 151.082C305.906 151.082 151.082 305.906 151.082 496.892C151.082 545.276 160.975 591.195 178.817 632.865H248.907C251.503 628.377 254.306 623.896 257.326 619.43L257.389 619.472L441.903 299.883L389.455 269.602L560.617 174.584L563.91 370.323L511.685 340.171L341.729 634.544H654.689V602.649C654.689 592.451 662.956 584.184 673.154 584.184C683.352 584.184 691.619 592.451 691.619 602.649V616.079C691.619 607.735 698.384 600.971 706.728 600.971C715.072 600.971 721.836 607.735 721.836 616.079V736.944C721.836 745.288 715.071 752.053 706.728 752.053C698.384 752.053 691.619 745.288 691.619 736.944V747.017C691.619 757.215 683.352 765.482 673.154 765.482C662.956 765.482 654.689 757.215 654.689 747.017V715.121H308.422C308.039 721.725 308.593 727.92 309.79 733.755C313.857 753.575 326.484 774.555 347.799 795.707C357.162 804.999 367.699 813.822 378.97 822.099C415.739 835.433 455.43 842.701 496.892 842.701C687.877 842.701 842.701 687.877 842.701 496.892C842.701 305.906 687.877 151.082 496.892 151.082Z" fill="#DAFF00"></path>
</g>
<defs>
<filter id="filter0_df_8_43" x="-1.52588e-05" y="-1.52588e-05" width="993.783" height="993.783" filterUnits="userSpaceOnUse" color-interpolation-filters="sRGB">
<feFlood flood-opacity="0" result="BackgroundImageFix"></feFlood>
<feColorMatrix in="SourceAlpha" type="matrix" values="0 0 0 0 0 0 0 0 0 0 0 0 0 0 0 0 0 0 127 0" result="hardAlpha"></feColorMatrix>
<feOffset dy="13.4295"></feOffset>
<feGaussianBlur stdDeviation="6.71475"></feGaussianBlur>
<feComposite in2="hardAlpha" operator="out"></feComposite>
<feColorMatrix type="matrix" values="0 0 0 0 0 0 0 0 0 0 0 0 0 0 0 0 0 0 0.25 0"></feColorMatrix>
<feBlend mode="normal" in2="BackgroundImageFix" result="effect1_dropShadow_8_43"></feBlend>
<feBlend mode="normal" in="SourceGraphic" in2="effect1_dropShadow_8_43" result="shape"></feBlend>
<feGaussianBlur stdDeviation="33.5738" result="effect2_foregroundBlur_8_43"></feGaussianBlur>
</filter>
</defs>
</svg>