<?xml version="1.0" standalone="no"?>
<!DOCTYPE svg PUBLIC "-//W3C//DTD SVG 20010904//EN"
 "http://www.w3.org/TR/2001/REC-SVG-20010904/DTD/svg10.dtd">
<svg version="1.0" xmlns="http://www.w3.org/2000/svg"
 width="256.000000pt" height="256.000000pt" viewBox="0 0 256.000000 256.000000"
 preserveAspectRatio="xMidYMid meet">
<metadata>
Created by potrace 1.16, written by Peter Selinger 2001-2019
</metadata>
<g transform="translate(0.000000,256.000000) scale(0.100000,-0.100000)"
fill="#000000" stroke="none">
<path d="M1140 2553 c-194 -21 -407 -100 -580 -216 -96 -64 -273 -241 -337
-337 -296 -442 -296 -998 0 -1440 64 -96 241 -273 337 -337 442 -296 998 -296
1440 0 96 64 273 241 337 337 296 442 296 998 0 1440 -64 96 -241 273 -337
337 -252 169 -566 248 -860 216z m311 -258 c477 -83 831 -480 856 -961 19
-365 -153 -707 -457 -909 -256 -171 -566 -219 -860 -133 -68 20 -81 29 -146
93 -76 75 -124 157 -124 212 l0 33 515 0 515 0 0 -57 c0 -62 18 -93 53 -93 27
0 57 28 57 52 0 18 1 18 16 4 20 -20 38 -20 58 0 13 13 16 46 16 209 0 163 -3
196 -16 209 -8 9 -22 16 -29 16 -7 0 -21 -7 -29 -16 -15 -14 -16 -13 -16 7 0
29 -27 59 -53 59 -39 0 -57 -28 -57 -92 l0 -58 -465 0 -465 0 17 33 c66 124
480 830 489 834 6 2 42 -14 80 -37 l69 -40 3 47 c1 27 -1 156 -5 289 l-8 241
-252 -140 -253 -141 73 -41 c45 -26 72 -47 71 -57 -1 -14 -270 -486 -496 -870
l-69 -118 -98 0 c-67 0 -102 4 -108 13 -6 6 -20 42 -33 80 -86 264 -60 551 74
803 207 388 647 605 1077 529z"/>
</g>
</svg>
